<svg version="1.1" xmlns="http://www.w3.org/2000/svg" xmlns:xlink="http://www.w3.org/1999/xlink" x="0px"
	 y="0px" width="45px" height="35px" viewBox="0 0 45 35" style="enable-background:new 0 0 45 35;" xml:space="preserve">
	<g>
		<polygon class="st0" points="35.9,14.1 35.9,9.4 32.6,9.4 32.6,14.1 27.9,14.1 27.9,17.4 32.6,17.4 32.6,22.1 35.9,22.1 35.9,17.4
			40.6,17.4 40.6,14.1 	"/>
		<path class="st0" d="M22.5,19.8c-1.2-0.9-2.6-2.3-2.6-2.9c0-0.9,0.2-1.3,1.8-2.7c2-1.6,3.1-3.7,3.1-5.9c0-2-0.7-4.4-2.1-5.7h1.8
			L28.1,0H16.3c-5,0-9.6,3.9-9.6,8.2c0,4.6,3.6,8.1,8.5,8.1l0.3,0c-0.2,0.5-0.3,1-0.3,1.5c0,0.9,0.3,1.7,0.9,2.5c-0.3,0-0.6,0-0.8,0
			c-5.8,0-10.8,3.7-10.8,8c0,3.8,4.7,6.6,11.2,6.6c7,0,10.8-4.1,10.8-8C26.4,23.7,25.3,21.8,22.5,19.8z M11.3,8.2
			c-0.2-1.8,0.2-3.5,1.1-4.6c0.6-0.7,1.5-1.1,2.4-1.1l0.1,0c2.5,0.1,4.9,2.8,5.3,6.1c0.2,1.9-0.2,3.6-1.1,4.7
			c-0.6,0.7-1.5,1.1-2.4,1.1l-0.1,0C14.2,14.4,11.8,11.6,11.3,8.2z M15.6,32.4c-3.7,0-6.5-2.3-6.5-5.2c0-2.7,3.3-5,7.1-5l0.1,0
			c0.8,0,1.7,0.1,2.4,0.4c0.3,0.2,0.5,0.4,0.8,0.5c1.7,1.2,2.9,2,3.2,3.3c0.1,0.3,0.1,0.7,0.1,1C22.8,30.7,20.4,32.4,15.6,32.4z"/>
	</g>
</svg>
