<!-- Generator: Adobe Illustrator 22.1.0, SVG Export Plug-In  -->
<svg version="1.1"
	 xmlns="http://www.w3.org/2000/svg" xmlns:xlink="http://www.w3.org/1999/xlink" xmlns:a="http://ns.adobe.com/AdobeSVGViewerExtensions/3.0/"
	 x="0px" y="0px" width="38.3px" height="38.3px" viewBox="0 0 38.3 38.3" style="enable-background:new 0 0 38.3 38.3;"
	 xml:space="preserve">
<defs>
</defs>
<path d="M37.3,6.6c-0.5-1.3-1.1-2.3-2.2-3.4C34,2.1,33,1.5,31.7,1c-1.2-0.5-2.6-0.8-4.6-0.9C25,0,24.3,0,19.2,0
	c-5.2,0-5.9,0-7.9,0.1C9.2,0.2,7.8,0.5,6.6,1C5.3,1.5,4.3,2.1,3.2,3.2C2.2,4.3,1.5,5.3,1,6.6c-0.5,1.2-0.8,2.6-0.9,4.6
	C0,13.3,0,13.9,0,19.1S0,25,0.1,27c0.1,2,0.4,3.4,0.9,4.6c0.5,1.3,1.1,2.3,2.2,3.4c1.1,1.1,2.1,1.7,3.4,2.2c1.2,0.5,2.6,0.8,4.6,0.9
	c2,0.1,2.7,0.1,7.9,0.1c5.2,0,5.9,0,7.9-0.1c2-0.1,3.4-0.4,4.6-0.9c1.3-0.5,2.3-1.1,3.4-2.2c1.1-1.1,1.7-2.1,2.2-3.4
	c0.5-1.2,0.8-2.6,0.9-4.6c0.1-2,0.1-2.7,0.1-7.9s0-5.9-0.1-7.9C38.1,9.2,37.8,7.8,37.3,6.6z M34.7,26.9c-0.1,1.9-0.4,2.9-0.7,3.6
	c-0.3,0.9-0.8,1.5-1.4,2.2c-0.7,0.7-1.3,1.1-2.2,1.4c-0.7,0.3-1.7,0.6-3.6,0.7c-2,0.1-2.6,0.1-7.7,0.1c-5.1,0-5.7,0-7.7-0.1
	c-1.9-0.1-2.9-0.4-3.6-0.7c-0.9-0.3-1.5-0.8-2.2-1.4C5,32,4.6,31.3,4.2,30.4c-0.3-0.7-0.6-1.7-0.7-3.6c-0.1-2-0.1-2.6-0.1-7.7
	c0-5.1,0-5.7,0.1-7.7C3.7,9.5,4,8.5,4.2,7.9C4.6,7,5,6.3,5.7,5.7C6.3,5,7,4.6,7.9,4.2C8.5,4,9.5,3.6,11.4,3.6c2-0.1,2.6-0.1,7.7-0.1
	c5.1,0,5.7,0,7.7,0.1c1.9,0.1,2.9,0.4,3.6,0.7C31.3,4.6,32,5,32.6,5.7c0.7,0.7,1.1,1.3,1.4,2.2c0.3,0.7,0.6,1.7,0.7,3.6
	c0.1,2,0.1,2.6,0.1,7.7C34.8,24.3,34.8,24.9,34.7,26.9z M19.2,9.3c-5.4,0-9.8,4.4-9.8,9.8c0,5.4,4.4,9.8,9.8,9.8
	c5.4,0,9.8-4.4,9.8-9.8C29,13.7,24.6,9.3,19.2,9.3z M19.2,25.5c-3.5,0-6.4-2.9-6.4-6.4c0-3.5,2.9-6.4,6.4-6.4c3.5,0,6.4,2.9,6.4,6.4
	C25.5,22.7,22.7,25.5,19.2,25.5z M31.7,8.9c0,1.3-1,2.3-2.3,2.3c-1.3,0-2.3-1-2.3-2.3c0-1.3,1-2.3,2.3-2.3
	C30.6,6.6,31.7,7.7,31.7,8.9z"/>
</svg>
