<svg version="1.1" xmlns="http://www.w3.org/2000/svg" xmlns:xlink="http://www.w3.org/1999/xlink" x="0px" y="0px"
	 width="45px" height="35px" viewBox="0 0 45 35" style="enable-background:new 0 0 45 35;" xml:space="preserve">
	<path d="M5.5,11.6h7.3V35H5.5V11.6z M9.2,0c2.3,0,4.2,1.9,4.2,4.2c0,2.3-1.9,4.2-4.2,4.2C6.8,8.4,5,6.5,5,4.2
		C5,1.9,6.8,0,9.2,0"/>
	<path d="M17.4,11.6h7v3.2h0.1c1-1.8,3.3-3.8,6.9-3.8c7.4,0,8.7,4.8,8.7,11.1V35h-7.3V23.6c0-2.7-0.1-6.2-3.8-6.2
		c-3.8,0-4.4,3-4.4,6V35h-7.3V11.6z"/>
</svg>
