<!-- Generator: Adobe Illustrator 22.1.0, SVG Export Plug-In  -->
<svg version="1.1"
	 xmlns="http://www.w3.org/2000/svg" xmlns:xlink="http://www.w3.org/1999/xlink" xmlns:a="http://ns.adobe.com/AdobeSVGViewerExtensions/3.0/"
	 x="0px" y="0px" width="33.6px" height="41.3px" viewBox="0 0 33.6 41.3" style="enable-background:new 0 0 33.6 41.3;"
	 xml:space="preserve">
<defs>
</defs>
<path d="M17.4,0C6,0,0,7.3,0,15.2c0,3.7,2.1,8.3,5.3,9.7c0.5,0.2,0.8,0.1,0.9-0.3c0.1-0.4,0.5-2,0.7-2.8C7,21.4,7,21.2,6.8,21
	c-1.1-1.3-2-3.6-2-5.7c0-5.5,4.4-10.9,11.9-10.9c6.5,0,11,4.2,11,10.2c0,6.8-3.6,11.5-8.3,11.5c-2.6,0-4.5-2-3.9-4.5
	c0.7-3,2.2-6.2,2.2-8.3c0-1.9-1.1-3.5-3.3-3.5c-2.6,0-4.8,2.6-4.8,6.1c0,2.2,0.8,3.7,0.8,3.7S7.8,30,7.3,31.9
	c-0.8,3.3,0.1,8.7,0.2,9.2c0,0.3,0.3,0.3,0.5,0.1c0.3-0.3,3.4-4.8,4.3-8.1c0.3-1.2,1.6-6,1.6-6c0.9,1.6,3.4,2.9,6,2.9
	c7.9,0,13.6-7,13.6-15.6C33.6,6.2,26.5,0,17.4,0"/>
</svg>
