<svg version="1.1" xmlns="http://www.w3.org/2000/svg" xmlns:xlink="http://www.w3.org/1999/xlink" x="0px"
	 y="0px" width="45px" height="35px" viewBox="0 0 45 35" style="enable-background:new 0 0 43 34.9;" xml:space="preserve">
<path d="M38.6,8.7c0,0.4,0,0.8,0,1.1c0,11.7-8.9,25.1-25.1,25.1c-5,0-9.6-1.5-13.5-4c0.7,0.1,1.4,0.1,2.1,0.1
	c4.1,0,7.9-1.4,11-3.8c-3.9-0.1-7.1-2.6-8.2-6.1c0.5,0.1,1.1,0.2,1.7,0.2c0.8,0,1.6-0.1,2.3-0.3c-4-0.8-7.1-4.4-7.1-8.7
	c0,0,0-0.1,0-0.1c1.2,0.7,2.5,1.1,4,1.1c-2.4-1.6-3.9-4.3-3.9-7.3c0-1.6,0.4-3.1,1.2-4.4c4.4,5.3,10.9,8.9,18.2,9.2
	c-0.1-0.6-0.2-1.3-0.2-2C20.9,4,24.9,0,29.8,0c2.5,0,4.8,1.1,6.4,2.8c2-0.4,3.9-1.1,5.6-2.1c-0.7,2.1-2.1,3.8-3.9,4.9
	c1.8-0.2,3.5-0.7,5.1-1.4C41.8,5.9,40.3,7.5,38.6,8.7z"/>
</svg>
