<!-- Generator: Adobe Illustrator 22.1.0, SVG Export Plug-In  -->
<svg version="1.1"
	 xmlns="http://www.w3.org/2000/svg" xmlns:xlink="http://www.w3.org/1999/xlink" xmlns:a="http://ns.adobe.com/AdobeSVGViewerExtensions/3.0/"
	 x="0px" y="0px" width="38.2px" height="25.3px" viewBox="0 0 38.2 25.3" style="enable-background:new 0 0 38.2 25.3;"
	 xml:space="preserve">
<defs>
</defs>
<g>
	<path d="M32.5,0.5c-8.7-0.7-18.1-0.7-26.8,0C3,0.8,1,2.7,0.5,5.3c-0.6,4.7-0.6,10,0,14.7C1,22.7,3,24.5,5.7,24.8
		c8.6,0.7,18.1,0.7,26.8,0c2.7-0.3,4.7-2.1,5.3-4.8c0.6-4.7,0.6-10,0-14.7C37.2,2.7,35.2,0.8,32.5,0.5z M14.5,17.8V7.5l9.2,5.2
		L14.5,17.8z"/>
</g>
</svg>
